<svg width="14" height="19" viewBox="0 0 14 19" fill="none" xmlns="http://www.w3.org/2000/svg">
<path d="M1.04082 12.9977C0.724154 12.4508 0.486654 11.8894 0.32832 11.3136C0.169987 10.7379 0.0908203 10.1477 0.0908203 9.54318C0.0908203 7.61439 0.760139 5.97348 2.09877 4.62045C3.43741 3.26742 5.07112 2.59091 6.99991 2.59091H7.15105L5.76923 1.20909L6.97832 0L10.4329 3.45455L6.97832 6.90909L5.76923 5.7L7.15105 4.31818H6.99991C5.56052 4.31818 4.33703 4.82557 3.32946 5.84034C2.32188 6.85511 1.81809 8.08939 1.81809 9.54318C1.81809 9.91742 1.86127 10.2845 1.94764 10.6443C2.034 11.0042 2.16355 11.3568 2.33627 11.7023L1.04082 12.9977ZM7.0215 19L3.56696 15.5455L7.0215 12.0909L8.23059 13.3L6.84877 14.6818H6.99991C8.43931 14.6818 9.66279 14.1744 10.6704 13.1597C11.6779 12.1449 12.1817 10.9106 12.1817 9.45682C12.1817 9.08258 12.1385 8.71553 12.0522 8.35568C11.9658 7.99583 11.8363 7.64318 11.6635 7.29773L12.959 6.00227C13.2757 6.54924 13.5132 7.11061 13.6715 7.68636C13.8298 8.26212 13.909 8.85227 13.909 9.45682C13.909 11.3856 13.2397 13.0265 11.901 14.3795C10.5624 15.7326 8.9287 16.4091 6.99991 16.4091H6.84877L8.23059 17.7909L7.0215 19Z" fill="#9C9C9C"/>
</svg>
