<svg width="14" height="14" viewBox="0 0 14 14" fill="none" xmlns="http://www.w3.org/2000/svg">
<path d="M4.19788 13.9929C3.81307 13.9929 3.48366 13.8559 3.20963 13.5819C2.9356 13.3079 2.79859 12.9784 2.79859 12.5936C2.79859 12.2088 2.9356 11.8794 3.20963 11.6054C3.48366 11.3314 3.81307 11.1943 4.19788 11.1943C4.58268 11.1943 4.9121 11.3314 5.18613 11.6054C5.46016 11.8794 5.59717 12.2088 5.59717 12.5936C5.59717 12.9784 5.46016 13.3079 5.18613 13.5819C4.9121 13.8559 4.58268 13.9929 4.19788 13.9929ZM11.1943 13.9929C10.8095 13.9929 10.4801 13.8559 10.2061 13.5819C9.93206 13.3079 9.79505 12.9784 9.79505 12.5936C9.79505 12.2088 9.93206 11.8794 10.2061 11.6054C10.4801 11.3314 10.8095 11.1943 11.1943 11.1943C11.5791 11.1943 11.9086 11.3314 12.1826 11.6054C12.4566 11.8794 12.5936 12.2088 12.5936 12.5936C12.5936 12.9784 12.4566 13.3079 12.1826 13.5819C11.9086 13.8559 11.5791 13.9929 11.1943 13.9929ZM3.60318 2.79859L5.28233 6.29682H10.1799L12.1039 2.79859H3.60318ZM2.93851 1.39929H13.2583C13.5265 1.39929 13.7306 1.51882 13.8705 1.75786C14.0104 1.99691 14.0162 2.23887 13.888 2.48374L11.4042 6.96148C11.276 7.1947 11.104 7.37544 10.8882 7.50371C10.6725 7.63198 10.4364 7.69611 10.1799 7.69611H4.96749L4.19788 9.0954H12.5936V10.4947H4.19788C3.67314 10.4947 3.27668 10.2644 3.00848 9.8038C2.74028 9.34319 2.72862 8.88551 2.9735 8.43074L3.91802 6.71661L1.39929 1.39929H0V0H2.27385L2.93851 1.39929Z" fill="black"/>
</svg>
