<svg width="34" height="33" viewBox="0 0 34 33" fill="none" xmlns="http://www.w3.org/2000/svg">
<path d="M15.5734 1.39058C16.0224 0.00861251 17.9776 0.00860948 18.4266 1.39058L21.378 10.4742C21.5788 11.0922 22.1548 11.5106 22.8046 11.5106H32.3557C33.8087 11.5106 34.4129 13.3701 33.2373 14.2242L25.5104 19.8381C24.9846 20.2201 24.7647 20.8972 24.9655 21.5152L27.9169 30.5988C28.3659 31.9807 26.7842 33.1299 25.6086 32.2758L17.8817 26.6619C17.3559 26.2799 16.6441 26.2799 16.1183 26.6619L8.39136 32.2758C7.21579 33.1299 5.63407 31.9807 6.08309 30.5988L9.03453 21.5152C9.23534 20.8972 9.01536 20.2201 8.48963 19.8381L0.762663 14.2242C-0.412908 13.3701 0.191253 11.5106 1.64434 11.5106H11.1954C11.8452 11.5106 12.4212 11.0922 12.622 10.4742L15.5734 1.39058Z" fill="black"/>
</svg>
