<svg width="13" height="15" viewBox="0 0 13 15" fill="none" xmlns="http://www.w3.org/2000/svg">
<path d="M4.33333 1.42857V0H8.66667V1.42857H4.33333ZM5.77778 9.28571H7.22222V5H5.77778V9.28571ZM6.5 15C5.60926 15 4.76968 14.8304 3.98125 14.4911C3.19282 14.1518 2.5037 13.6905 1.91389 13.1071C1.32407 12.5238 0.857639 11.8423 0.514583 11.0625C0.171528 10.2827 0 9.45238 0 8.57143C0 7.69048 0.171528 6.86012 0.514583 6.08036C0.857639 5.3006 1.32407 4.61905 1.91389 4.03571C2.5037 3.45238 3.19282 2.99107 3.98125 2.65179C4.76968 2.3125 5.60926 2.14286 6.5 2.14286C7.2463 2.14286 7.9625 2.2619 8.64861 2.5C9.33472 2.7381 9.9787 3.08333 10.5806 3.53571L11.5917 2.53571L12.6028 3.53571L11.5917 4.53571C12.0491 5.13095 12.3981 5.76786 12.6389 6.44643C12.8796 7.125 13 7.83333 13 8.57143C13 9.45238 12.8285 10.2827 12.4854 11.0625C12.1424 11.8423 11.6759 12.5238 11.0861 13.1071C10.4963 13.6905 9.80718 14.1518 9.01875 14.4911C8.23032 14.8304 7.39074 15 6.5 15ZM6.5 13.5714C7.8963 13.5714 9.08796 13.0833 10.075 12.1071C11.062 11.131 11.5556 9.95238 11.5556 8.57143C11.5556 7.19048 11.062 6.01191 10.075 5.03571C9.08796 4.05952 7.8963 3.57143 6.5 3.57143C5.1037 3.57143 3.91204 4.05952 2.925 5.03571C1.93796 6.01191 1.44444 7.19048 1.44444 8.57143C1.44444 9.95238 1.93796 11.131 2.925 12.1071C3.91204 13.0833 5.1037 13.5714 6.5 13.5714Z" fill="black"/>
</svg>
